<?xml version="1.0" standalone="no"?>
<!DOCTYPE svg PUBLIC "-//W3C//DTD SVG 20010904//EN"
 "http://www.w3.org/TR/2001/REC-SVG-20010904/DTD/svg10.dtd">
<svg version="1.0" xmlns="http://www.w3.org/2000/svg"
 width="83.000000pt" height="83.000000pt" viewBox="0 0 83.000000 83.000000"
 preserveAspectRatio="xMidYMid meet">
<metadata>
Created by potrace 1.16, written by Peter Selinger 2001-2019
</metadata>
<g transform="translate(0.000000,83.000000) scale(0.100000,-0.100000)"
fill="#000000" stroke="none">
<path d="M109 763 l-54 -67 -3 -80 c-3 -69 1 -95 27 -176 18 -52 41 -131 52
-175 11 -44 25 -84 30 -89 15 -16 10 -25 -23 -42 -18 -9 -48 -30 -65 -47 -32
-30 -33 -30 -53 -12 -20 18 -20 18 -20 -29 l0 -46 154 1 c130 0 154 3 149 15
-6 17 -5 17 -37 4 -15 -5 -26 -6 -26 0 0 5 10 12 23 16 12 4 25 11 28 16 3 5
12 -4 19 -21 9 -24 19 -31 39 -31 15 0 31 4 37 8 5 5 28 14 52 21 33 9 62 31
118 89 42 42 72 68 68 58 -6 -15 -4 -18 8 -14 9 4 23 -3 34 -15 l19 -22 3 25
c2 14 8 27 12 30 4 3 11 26 15 53 7 45 6 49 -28 80 l-35 34 5 94 c3 52 9 99
13 104 18 23 21 74 6 110 -9 21 -16 48 -16 62 0 32 -25 78 -52 97 -19 13 -58
16 -233 16 l-212 0 -54 -67z m410 -39 c13 -14 25 -38 27 -53 3 -14 13 -37 22
-51 55 -82 57 -90 55 -205 -3 -127 -20 -217 -45 -245 -10 -11 -18 -22 -18 -25
0 -11 -70 -82 -83 -83 -6 -1 -32 -4 -57 -8 -41 -5 -48 -3 -74 25 l-30 31 22
45 c27 55 27 55 2 55 -10 0 -23 8 -29 18 -8 14 -12 15 -23 4 -11 -11 -10 -18
4 -41 28 -51 -15 -63 -54 -16 -10 11 -17 27 -18 36 0 18 -14 48 -43 91 -10 15
-17 37 -15 50 2 13 -3 28 -11 34 -16 12 -7 49 9 39 5 -3 10 1 10 9 0 21 39 46
72 46 27 0 46 16 34 28 -4 3 -25 8 -49 12 -33 4 -41 9 -39 23 2 9 -2 17 -7 17
-6 0 -8 7 -5 15 4 8 1 15 -5 15 -6 0 -11 7 -11 15 0 10 15 16 48 21 45 6 65
15 157 74 36 23 94 46 121 49 6 1 21 -11 33 -25z"/>
<path d="M724 216 c-2 -76 -6 -91 -37 -150 l-35 -66 67 0 66 1 -35 19 c-48 26
-11 26 40 0 l40 -20 0 134 0 134 -47 16 c-26 9 -49 16 -52 16 -3 0 -7 -38 -7
-84z"/>
</g>
</svg>
